<svg width="575" height="532" viewBox="0 0 575 532" fill="none" xmlns="http://www.w3.org/2000/svg">
<path d="M287.445 531.326C446.197 531.326 574.89 526.345 574.89 520.2C574.89 514.055 446.197 509.074 287.445 509.074C128.694 509.074 0.000610352 514.055 0.000610352 520.2C0.000610352 526.345 128.694 531.326 287.445 531.326Z" fill="#E5DBC1"/>
<path d="M388.357 192.162C388.357 192.162 409.072 216.553 431.682 201.011C454.293 185.47 463.722 101.692 471.816 97.716C479.911 93.7419 527.337 107.228 533.948 133.815C533.948 133.815 544.404 76.8827 488.845 76.2159C430.219 75.5094 439.126 127.293 436.776 132.967C434.426 138.642 388.357 192.162 388.357 192.162Z" fill="#88AA3B"/>
<path d="M410.797 191.538C410.797 191.538 443.927 197.784 453.011 175.442L450.861 146.56L420.765 155.36L410.797 191.538Z" fill="#CEC24D"/>
<path d="M455.976 104.136C455.976 104.136 500.393 59.732 528.268 120.139L455.976 104.136Z" fill="#CEC24D"/>
<path d="M491.476 89.3115C491.476 89.3115 489.685 93.895 491.562 99.1129" stroke="#A37A3A" stroke-miterlimit="1.5" stroke-linecap="round" stroke-linejoin="round"/>
<path d="M511.202 97.2907C511.202 97.2907 507.652 100.729 507.041 104.434" stroke="#A37A3A" stroke-miterlimit="1.5" stroke-linecap="round" stroke-linejoin="round"/>
<path d="M528.194 95.8394C526.593 100.083 526.927 105.787 528.977 109.717C530.313 112.281 532.11 114.631 534.362 116.1C533.698 109.689 531.997 102.407 528.194 95.8394ZM496.545 76.7061C496.554 76.7326 496.559 76.7532 496.564 76.7694C497.82 80.8893 500.154 85.0592 504.249 85.224C506.48 85.3123 509.925 83.5431 512.082 80.9967C507.753 78.9361 502.623 77.4362 496.545 76.7061Z" fill="#598340"/>
<path d="M402.925 151.36C402.925 151.36 377.87 198.512 385.683 204.78C390.964 209.019 400.694 208.255 407.873 200.005C415.269 191.504 424.958 163.66 424.958 163.66L402.925 151.36Z" fill="#C25D45"/>
<path d="M449.105 120.352L448.182 98.0414C448.182 98.0414 429.699 99.8032 419.996 109.334C406.31 122.78 393.062 152.227 393.062 152.227L428.78 182.473L449.105 120.352Z" fill="#343C53"/>
<path d="M398.318 111.757C398.318 111.757 363.108 145.088 379.751 184.417L414.308 124.886L398.318 111.757Z" fill="#B1C85F"/>
<path d="M408.629 120.223L401.042 122.215C401.042 122.215 381.871 139.324 385.296 170.499L411.218 127.231L408.872 120.422L408.629 120.223Z" fill="#E4D58F"/>
<path d="M395.67 129.774C395.67 129.774 397.492 131.735 401.061 133.484" stroke="#B7964C" stroke-miterlimit="1.5" stroke-linecap="round" stroke-linejoin="round"/>
<path d="M389.105 144.255C389.105 144.255 392.861 147.524 395.77 146.765" stroke="#B7964C" stroke-miterlimit="1.5" stroke-linecap="round" stroke-linejoin="round"/>
<path d="M375.925 154.214C376.801 155.197 377.668 156.341 378.252 157.571C379.522 160.25 378.019 162.324 378.019 165.009C378.019 166.863 378.936 168.577 378.773 170.44C378.679 171.519 378.083 172.357 377.258 172.828C376.958 173 376.632 173.118 376.298 173.197C374.995 166.554 375.028 160.177 375.925 154.214ZM391.283 119.86C391.426 120.619 391.506 121.39 391.476 122.132C391.344 125.258 389.06 126.873 387.957 129.459C387.201 131.229 387.097 133.96 385.733 135.306C384.73 136.296 383.153 136.195 381.739 135.494C384.711 129.174 388.243 123.85 391.283 119.86Z" fill="#709D44"/>
<path d="M545.64 522.83L492.683 521.853L497.744 500.669C497.744 500.669 521.267 498.987 529.465 502.031C548.5 509.099 545.64 522.83 545.64 522.83Z" fill="#2C3243"/>
<path d="M544.652 514.985C546.366 519.348 545.639 522.832 545.639 522.832L492.681 521.855L494.323 514.985H544.652Z" fill="#4D5775"/>
<path d="M422.741 522.83L472.991 521.853L468.189 500.669C468.189 500.669 445.869 498.987 438.09 502.031C420.027 509.099 422.741 522.83 422.741 522.83Z" fill="#2C3243"/>
<path d="M471.311 514.438H423.893C421.994 519.052 422.741 522.832 422.741 522.832L472.991 521.855L471.311 514.438Z" fill="#4D5775"/>
<path d="M437.932 221.776L421.072 237.434L434.22 500.204L472.991 505.496L466.016 326.12L492.682 505.873L532.297 501.591L508.328 245.857L437.932 221.776Z" fill="#BB683A"/>
<path d="M421.988 255.435C437.039 261.835 477.594 276.946 510.387 269.772L508.328 245.857L437.93 221.776L421.07 237.434L421.988 255.435Z" fill="#91502D"/>
<path d="M470.388 438.553L466.019 326.193L462.126 308.876L441.891 299.385L470.388 438.553ZM466.189 326.954L466.296 328.019L466.04 326.296L466.189 326.954Z" fill="#91502D"/>
<path d="M475.533 97.5512C475.533 97.5512 508.09 97.1111 517.513 108.574C526.935 120.036 513.627 257.531 513.627 257.531C479.891 261.207 447.639 258.575 418.26 252.02C418.26 252.02 419.563 142.349 426.098 116.237C432.633 90.1255 475.533 97.5512 475.533 97.5512Z" fill="#343C53"/>
<path d="M520.364 162.306C518.699 205.104 513.626 257.53 513.626 257.53C479.889 261.205 447.637 258.573 418.258 252.019C418.258 252.019 418.451 235.696 419.066 214.142C494.847 233.707 514.22 157.782 514.22 157.782L520.364 162.306Z" fill="#2D3148"/>
<path d="M409.96 122.964C409.96 122.964 427.155 116.088 432.228 120.352C437.301 124.615 440.023 137.53 435.976 139.552C431.929 141.574 409.96 122.964 409.96 122.964Z" fill="#C25D45"/>
<path d="M392.555 168.067C391.405 167.03 378.975 162.649 394.335 138.304C397.871 132.697 402.376 127.317 407.145 123.042C408.67 121.676 410.812 121.337 412.657 120.981C417.849 119.977 425.984 119.696 430.257 123.878C433.135 126.696 435.02 132.438 435.753 136.621C436.211 139.231 436.152 142.278 433.767 143.606C433.322 143.853 431.449 143.991 431.449 143.991C431.449 143.991 432.118 148.781 430.424 150.744C429.375 151.96 426.247 152.023 426.247 152.023C426.247 152.023 426.648 153.548 426.511 155.319C426.318 157.801 424.064 159.374 421.984 158.635C417.515 157.047 415.557 151.766 411.967 152.901C411.472 153.057 410.097 158.35 406.269 163.201C399.635 171.607 393.028 168.493 392.555 168.067Z" fill="#D77A5F"/>
<path d="M430.842 140.843C430.842 140.843 428.488 133.455 425.576 132.098C422.665 130.738 415.227 128.58 415.227 128.58" stroke="#973B38" stroke-miterlimit="1.5" stroke-linecap="round" stroke-linejoin="round"/>
<path d="M425.576 150.363C425.576 150.363 422.761 143.214 419.85 141.857C416.939 140.498 409.96 138.101 409.96 138.101" stroke="#973B38" stroke-miterlimit="1.5" stroke-linecap="round" stroke-linejoin="round"/>
<path d="M388.294 151.36C388.294 151.36 371.203 188.525 381.664 201.404C389.296 210.8 401.415 208.278 404.946 197.666C409.714 183.332 401.358 164.271 401.358 164.271L388.294 151.36Z" fill="#D77A5F"/>
<path d="M410.735 94.7881C423.702 91.7501 436.039 95.4225 437.567 104.014C438.695 110.361 435.779 114.038 435.779 114.038C435.779 114.038 436.858 119.226 420.218 123.972C402.851 128.926 398.463 123.732 396.392 115.293C394.324 106.858 399.447 97.4316 410.735 94.7881Z" fill="#B1C85F"/>
<path d="M400.718 100.183C403.162 97.7071 406.519 95.773 410.734 94.7853C423.701 91.7473 435.879 95.1872 437.566 104.011C437.848 105.489 437.971 106.908 437.748 108.312C436.62 104.314 435.443 101.693 432.409 99.5308C421.904 92.0446 408.004 96.0217 400.718 100.183Z" fill="#D1DC83"/>
<path d="M435.79 114.113C435.843 114.778 435.665 119.565 420.22 123.97C409.057 127.155 403.256 126.147 399.986 122.778C400.872 120.897 402.563 119.063 404.303 117.729C407.121 115.573 412.898 119.584 420.638 117.086C426.295 115.258 432.734 114.428 435.79 114.113Z" fill="#E4D58F"/>
<path d="M414.596 110.941C416.186 110.941 417.476 109.448 417.476 107.606C417.476 105.764 416.186 104.27 414.596 104.27C413.006 104.27 411.717 105.764 411.717 107.606C411.717 109.448 413.006 110.941 414.596 110.941Z" fill="#11304E"/>
<path d="M415.718 105.042C416.436 105.042 417.017 105.716 417.017 106.546C417.017 107.378 416.435 108.05 415.718 108.05C415 108.05 414.42 107.376 414.42 106.546C414.42 105.714 415 105.042 415.718 105.042Z" fill="white"/>
<path d="M432.427 107.567C432.928 107.791 433.227 108.291 433.097 108.684C432.967 109.079 432.454 109.217 431.954 108.995C431.454 108.773 431.154 108.271 431.285 107.878C431.414 107.483 431.928 107.345 432.427 107.567Z" fill="#425D30"/>
<path d="M482.144 78.0801C482.144 78.0801 479.946 93.6234 489.988 99.3329C489.988 99.3329 481.753 119.46 467.491 121.027C453.228 122.592 450.775 100.817 453.971 100.038C457.387 99.2048 459.822 97.1162 459.594 76.5846L482.144 78.0801Z" fill="#D77A5F"/>
<path d="M482.636 88.3532C477.492 93.4401 468.876 99.2629 457.164 97.8823C458.917 94.572 460.254 88.3208 459.594 76.5823L482.144 78.0793C482.144 78.0793 481.445 83.0205 482.636 88.3532Z" fill="#C25D45"/>
<path d="M437.52 50.4266C432.354 49.5759 427.695 52.7508 427.121 57.5124C426.546 62.274 430.273 66.831 435.437 67.6818C440.602 68.5325 445.261 65.3562 445.836 60.596C446.409 55.8329 442.683 51.2774 437.52 50.4266Z" fill="#C25D45"/>
<path d="M463.208 7.34979C446.19 8.93357 433.492 29.0678 434.867 52.2856C436.244 75.505 447.987 94.8179 465.004 93.2341C482.022 91.6503 497.912 69.7675 496.535 46.5511C495.16 23.3318 480.225 5.76749 463.208 7.34979Z" fill="#D77A5F"/>
<path d="M470.314 58.3381C469.332 58.5619 468.768 60.2678 469.057 62.143C469.345 64.0182 470.378 65.3606 471.36 65.1369C472.344 64.9131 472.908 63.2087 472.618 61.332C472.331 59.4553 471.298 58.1144 470.314 58.3381Z" fill="#25314F"/>
<path d="M445.341 61.0699C444.358 61.2951 443.794 62.9996 444.084 64.8748C444.371 66.7529 445.404 68.0939 446.387 67.8701C447.369 67.6449 447.934 65.9404 447.645 64.0638C447.355 62.1871 446.324 60.8462 445.341 61.0699Z" fill="#25314F"/>
<path d="M479.777 53.6677C479.777 53.6677 470.11 46.6305 465.61 53.9503C465.61 53.9503 468.042 37.6563 479.777 53.6677Z" fill="#2C3243"/>
<path d="M437.931 55.6886C437.931 55.6886 441.298 47.5225 450.086 52.9155C450.086 52.9155 439.614 38.3084 437.931 55.6886Z" fill="#2C3243"/>
<path d="M453.588 64.9322C453.588 64.9322 453.332 70.4415 455.069 73.4471" stroke="#973B38" stroke-width="0.92" stroke-miterlimit="1.5" stroke-linecap="round" stroke-linejoin="round"/>
<path d="M457.733 79.6601C457.733 79.6601 466.206 82.5318 469.319 71.809" stroke="#973B38" stroke-width="0.92" stroke-miterlimit="1.5" stroke-linecap="round" stroke-linejoin="round"/>
<path d="M489.533 61.0449L487.674 47.1722C487.674 47.1722 480.555 38.4085 478.115 30.4985L437.957 31.9866C437.957 31.9866 435.475 39.7774 435.252 56.9898C435.252 56.9898 427.04 32.7829 441.445 13.5009C456.369 -6.47143 488.413 0.736499 495.654 17.3308C503.997 36.4479 500.975 52.6963 500.975 52.6963L489.533 61.0449Z" fill="#2C3243"/>
<path d="M433.128 45.6635C432.385 36.8792 433.3 24.4048 441.445 13.5009C452.36 -1.10779 472.439 -1.17549 485.269 6.33859C444.639 -2.06305 434.827 28.56 433.128 45.6635Z" fill="#394056"/>
<path d="M491.695 49.3064C487.254 52.6197 485.361 58.6177 487.469 62.6934C489.578 66.7677 494.894 67.3829 499.335 64.0697C503.777 60.7549 505.67 54.7569 503.562 50.6812C501.454 46.607 496.137 45.9917 491.695 49.3064Z" fill="#D77A5F"/>
<path d="M506.583 171.278L539.431 161.517C539.431 161.517 552.444 218.068 549.649 229.785C544.029 253.348 503.042 282.498 503.042 282.498L491.822 263.908C491.822 263.908 518.795 232.639 519.053 223.58C519.311 214.519 506.583 171.278 506.583 171.278Z" fill="#D77A5F"/>
<path d="M513.454 196.093C510.139 183.361 506.584 171.278 506.584 171.278L539.432 161.518C539.432 161.518 541.979 172.579 544.575 185.936L513.454 196.093Z" fill="#C25D45"/>
<path d="M497.866 263.686C497.866 263.686 477.962 259.919 470.539 264.357C466.271 266.909 454.082 282.077 455.975 285.041C457.867 288.006 469.763 274.903 469.763 274.903C469.763 274.903 456.303 294.647 458.312 297.024C461.459 300.744 473.694 282.862 473.694 282.862C473.694 282.862 461.707 303.895 464.713 306.459C467.576 308.9 478.6 291.192 478.6 291.192C478.6 291.192 472.02 308.602 474.848 310.289C477.958 312.144 484.791 295.785 484.791 295.785C484.791 295.785 498.232 295.577 505.704 280.196L497.866 263.686Z" fill="#D77A5F"/>
<path d="M510.04 104.076C510.04 104.076 527.92 107.644 536.137 126.115C544.357 144.583 549.729 170.263 549.729 170.263L507.251 194.554C507.251 194.554 496.397 162.898 498.145 145.379C499.893 127.856 510.04 104.076 510.04 104.076Z" fill="#343C53"/>
<path d="M514.561 199.983C514.561 199.983 520.493 220.074 519.547 223.519C518.601 226.964 514.377 234.427 512.016 243.404C509.656 252.383 515.24 265.678 523.504 277.967C532.162 290.844 542.764 323.168 516.162 342.805C488.851 362.966 495.69 376.491 497.101 379.661C497.101 379.661 485.926 370.34 492.291 354.614C498.656 338.888 517.84 324.615 516.453 314.272C512.877 287.574 483.73 279.704 485.305 247.868C487.233 208.911 514.561 199.983 514.561 199.983Z" fill="#B1C85F"/>
<path d="M519.649 222.521C519.648 222.931 519.615 223.268 519.548 223.517C518.601 226.963 514.378 234.425 512.017 243.403C509.656 252.381 515.24 265.677 523.504 277.966C527.345 283.678 531.57 293.221 532.757 303.782C527.372 286.06 513.572 276.86 508.415 259.436C503.244 241.97 513.639 228.524 519.649 222.521Z" fill="#E4D58F"/>
<path d="M512.33 233.186C513.399 233.41 514.304 233.811 515.046 234.393" stroke="#B7964C" stroke-miterlimit="1.5" stroke-linecap="round" stroke-linejoin="round"/>
<path d="M508.53 256.995C509.868 256.29 511.172 255.886 512.365 255.886" stroke="#B7964C" stroke-miterlimit="1.5" stroke-linecap="round" stroke-linejoin="round"/>
<path d="M520.208 279.851C521.395 279.388 522.356 278.641 522.612 277.022" stroke="#B7964C" stroke-miterlimit="1.5" stroke-linecap="round" stroke-linejoin="round"/>
<path d="M510.137 328.736C511.991 328.632 513.926 329.145 514.847 330.797C515.992 332.853 514.779 335.96 513.621 337.618C510.738 341.743 503.546 348.701 498.719 348.82C497.337 348.853 496.339 348.57 495.653 348.059C499.851 341.175 505.699 334.659 510.137 328.736ZM489.203 268.351C488.663 263.863 488.834 254.679 493.967 254.967C497.523 255.169 499.399 258.86 501.869 261.215C507.634 266.709 511.606 273.101 513.372 281.66C513.949 284.451 514.648 287.978 513.644 290.742C513.057 292.36 511.045 294.23 508.758 295.459C506.607 292.333 504.202 289.385 501.774 286.437C502.568 284.245 503.33 282.015 503.023 279.745C502.634 276.866 501.403 273.787 499.141 272.283C496.445 270.488 495.93 274.963 495.111 278.067C492.886 275.038 490.845 271.853 489.203 268.351ZM505.62 205.005C507.992 206.237 510.235 208.131 510.984 211.01C511.818 214.22 510.207 217.691 509.613 220.77C508.481 226.635 510.028 235.606 503.553 237.987C498.342 239.905 491.332 238.816 487.017 235.051C488.07 230.422 489.521 226.367 491.211 222.822C494.374 224.359 497.527 225.065 498.602 218.53C498.996 216.137 498.273 214.462 497.226 213.165C500.033 209.646 502.974 206.982 505.62 205.005Z" fill="#709D44"/>
<path d="M76.0886 496.47L68.3938 468.398L46.1528 480.349L54.037 503.474L76.0886 496.47Z" fill="#F9B287"/>
<path d="M52.5455 496.486L75.9871 496.32L80.8866 518.266C80.8866 518.266 31.4964 519.088 31.3833 518.493C28.532 503.378 49.8835 496.472 52.5455 496.486Z" fill="#462143"/>
<path d="M76.9022 500.419C68.4754 504.155 42.6716 514.573 35.4126 505.62C41.152 499.402 50.8125 496.476 52.5456 496.486L75.9873 496.32L76.9022 500.419Z" fill="#F9B287"/>
<path d="M115.751 507.672L116.553 481.728L92.6348 483.478L93.5598 505.542L115.751 507.672Z" fill="#F9B287"/>
<path d="M92.4453 500.533L115.887 500.238L120.874 522.158C120.874 522.158 71.4865 523.249 71.3721 522.654C68.4611 507.554 89.7834 500.533 92.4453 500.533Z" fill="#5E2C5A"/>
<path d="M116.817 504.333C108.407 508.115 82.6448 518.673 75.3489 509.76C81.0616 503.512 90.7107 500.533 92.4438 500.533L115.885 500.238L116.817 504.333Z" fill="#F9B287"/>
<path d="M86.7533 231.589C86.7533 231.589 107.866 287.58 49.3513 385.316C64.9698 408.67 58.3435 425.882 74.3762 481.159L46.9575 491.508C46.9575 491.508 12.4398 396.762 14.2365 382.227C19.1779 342.27 47.2637 239.178 47.2637 239.178L86.7533 231.589Z" fill="#FD7BAA"/>
<path d="M82.5841 311.307C76.5411 332.26 66.2782 357.043 49.3498 385.318C57.0446 396.824 59.3407 406.839 61.6062 420.652C53.1883 402.881 44.9738 387.019 44.9738 387.019C52.2786 369.195 60.0497 299.336 60.0497 299.336L82.5841 311.307Z" fill="#FD649B"/>
<path d="M113.548 228.143C113.548 228.143 136.809 240.553 112.678 379.936C126.474 412.086 118.111 427.654 119.624 490.151L89.9158 492.868C89.9158 492.868 89.1445 446.676 78.4777 376.885C71.3571 330.291 59.1871 241.187 59.1871 241.187L113.548 228.143Z" fill="#FD7BAA"/>
<path d="M37.3529 276.88C42.9233 255.109 47.2637 239.18 47.2637 239.18L86.7534 231.59C86.7534 231.59 87.1066 232.527 87.5958 234.374L113.549 228.145C113.549 228.145 124.883 234.19 123.52 285.238C88.5919 290.19 56.679 283.066 37.3529 276.88Z" fill="#FD649B"/>
<path d="M75.6061 120.051C75.6061 120.051 121.596 115.176 128.339 134.109C137.427 159.626 119.929 192.317 120.214 208.799C120.497 225.282 129.745 272.147 129.745 272.147C96.7505 284.608 71.211 278.766 35.7823 270.553C35.7823 270.553 43.7746 222.197 43.7606 213.711C43.7453 204.682 32.8828 146.922 40.5091 135.487C48.1328 124.051 75.6061 120.051 75.6061 120.051Z" fill="#AD4DA6"/>
<path d="M18.1859 175.509C18.1859 175.509 9.14158 214.343 13.9293 221.034C18.717 227.728 82.619 221.81 82.619 221.81L80.6813 206.692L42.2171 198.455L47.6604 174.748L18.1859 175.509Z" fill="#F89874"/>
<path d="M56.7644 152.165L47.4266 130.308C47.4266 130.308 32.3202 130.573 24.7994 144.043C17.2774 157.515 11.51 187.087 11.51 187.087L47.7125 193.836L56.7644 152.165Z" fill="#AD4DA6"/>
<path d="M77.8447 37.8757C77.8841 23.9647 87.4887 10.9236 102.892 15.1789C119.839 19.8596 120.034 40.6708 112.625 67.9938C106.078 92.1434 126.464 97.4393 126.464 97.4393C121.649 100.813 114.832 103.43 110.54 96.9374C110.54 96.9374 110.817 104.434 125.44 107.672C125.44 107.672 77.5525 141.426 77.8447 37.8757Z" fill="#933C1C"/>
<path d="M86.8903 100.327C86.8903 100.327 86.9678 117.247 98.8328 121.164C98.8328 121.164 93.0541 144.215 77.7418 148.896C62.4296 153.576 56.2849 131.041 59.6469 129.54C63.2428 127.934 65.5667 125.208 62.0484 103.52L86.8903 100.327Z" fill="#F9B287"/>
<path d="M89.0632 111.099C84.2616 117.574 75.7891 125.563 62.7894 126.582C64.1743 122.706 64.6368 115.806 62.0486 103.518L86.8905 100.327C86.8905 100.327 86.9159 105.704 89.0632 111.099Z" fill="#F89874"/>
<path d="M38.2384 76.4087C33.3363 74.8808 28.5245 77.3345 27.4991 81.8856C26.4724 86.4368 29.6198 91.3721 34.5205 92.8999C39.4213 94.4277 44.2344 91.9741 45.2598 87.4229C46.2865 82.8733 43.1404 77.938 38.2384 76.4087Z" fill="#F89874"/>
<path d="M68.5898 35.4735C52.0031 34.7022 37.7493 52.5505 36.7785 75.3047C35.8065 98.0589 46.7732 119.967 63.3713 119.606C76.7827 119.315 95.9132 100.856 96.884 78.0999C97.8547 55.3442 85.1777 36.2447 68.5898 35.4735Z" fill="#F9B287"/>
<path d="M92.0189 82.5009C92.0189 82.5009 80.826 73.9786 77.6291 60.0043C77.6291 60.0043 61.9459 67.8996 51.1926 67.6567C51.1926 67.6567 55.8329 65.4901 58.4821 62.1209C58.4821 62.1209 50.3311 67.1607 41.3948 68.2219C41.3948 68.2219 36.5487 76.1864 36.9667 82.1844L37.4864 61.5159L79.7904 42.1869L94.0404 66.0465L92.0189 82.5009Z" fill="#F89874"/>
<path d="M70.4017 85.9982C69.431 86.0836 68.7169 87.6629 68.8109 89.5278C68.9024 91.3913 69.7664 92.8337 70.7372 92.7499C71.7079 92.6645 72.422 91.0836 72.328 89.2202C72.2365 87.3582 71.3725 85.9158 70.4017 85.9982Z" fill="#162448"/>
<path d="M46.4339 85.6037C45.4631 85.6876 44.7503 87.2685 44.8431 89.1319C44.9346 90.9939 45.7986 92.4393 46.7693 92.3539C47.7401 92.2685 48.4542 90.6892 48.3602 88.8257C48.2674 86.9623 47.4034 85.5184 46.4339 85.6037Z" fill="#162448"/>
<path d="M77.5921 81.3809C77.5921 81.3809 68.957 73.2294 63.8872 79.7338C63.8872 79.7338 67.849 64.2258 77.5921 81.3809Z" fill="#B44A22"/>
<path d="M37.9705 79.0935C37.9705 79.0935 42.0301 71.6118 49.9791 78.047C49.9791 78.047 41.316 62.4271 37.9705 79.0935Z" fill="#B44A22"/>
<path d="M54.0348 92.7263C54.0348 92.7263 52.8074 95.4596 54.186 98.6169" stroke="#C04A4A" stroke-width="0.92" stroke-miterlimit="1.5" stroke-linecap="round" stroke-linejoin="round"/>
<path d="M56.1429 105.018C56.1429 105.018 64.0386 108.957 68.1071 98.9599" stroke="#C04A4A" stroke-width="0.92" stroke-miterlimit="1.5" stroke-linecap="round" stroke-linejoin="round"/>
<path d="M92.4308 83.7909C92.4308 83.7909 78.8008 68.7539 78.8809 53.4358C78.8809 53.4358 75.2304 62.8325 55.2728 66.2164C55.2728 66.2164 67.6855 59.2616 69.3894 53.6242C69.3894 53.6242 57.3655 62.6897 40.2642 66.864C40.2642 66.864 37.1461 73.5097 37.0838 84.5548C37.0838 84.5548 17.6103 51.0646 46.7062 29.5276C71.9674 10.8285 85.591 33.9124 85.591 33.9124C85.591 33.9124 108.828 28.4752 101.53 79.6254L92.4308 83.7909Z" fill="#B44A22"/>
<path d="M30.7837 62.798C30.1407 52.1723 33.1584 39.5536 46.7058 29.5255C63.1336 17.3661 74.6391 22.8755 80.6746 28.2155C73.4625 27.4384 63.1311 23.7159 48.1746 34.8597C36.7835 43.3453 32.5765 55.4134 30.7837 62.798Z" fill="#D56C30"/>
<path d="M95.4646 77.1446C90.8497 79.7646 88.4267 85.3372 90.0581 89.5837C91.6896 93.8287 96.7632 95.1504 101.379 92.5319C105.996 89.9119 108.417 84.3378 106.786 80.0928C105.153 75.8449 100.081 74.5246 95.4646 77.1446Z" fill="#F9B287"/>
<path d="M104.934 201.238C104.934 201.238 119.515 219.999 114.635 234.575C111.007 245.409 101.973 250.111 101.013 258.688C100.349 264.599 102.59 271.045 98.9772 272.858C95.4321 274.636 91.9125 266.074 93.7536 255.681C95.6735 244.849 104.517 240.005 107.653 233.536C111.852 224.878 101.187 212.994 101.187 212.994L104.934 201.238Z" fill="#929BA1"/>
<path d="M95.3388 250.484C97.509 250.616 100.562 251.111 103.117 252.683C102.035 254.542 101.257 256.488 101.012 258.688C100.349 264.599 102.589 271.045 98.9765 272.858C95.4315 274.636 91.9106 266.074 93.753 255.681C94.0897 253.776 94.6412 252.06 95.3388 250.484Z" fill="#F0F1F2"/>
<path d="M65.7896 161.286C82.7753 164.62 96.2985 184.756 88.5299 204.629C79.4208 227.927 57.617 198.845 53.1203 196.825C46.2018 193.72 22.1908 190.749 26.1247 175.662C30.5935 158.523 50.4609 158.278 65.7896 161.286Z" fill="#929BA1"/>
<path d="M25.748 179.927C25.6145 178.622 25.7238 177.206 26.1266 175.662C29.3476 163.31 40.5685 159.731 52.3243 159.825C49.5581 164.364 41.1682 175.976 25.748 179.927Z" fill="#717983"/>
<path d="M48.2296 195.164L49.8738 188.253L61.4123 173.871C61.4123 173.871 74.0537 191.85 62.4593 199.289C61.0413 200.199 54.537 197.461 53.1215 196.825C51.9246 196.29 50.2156 195.755 48.2296 195.164Z" fill="#717983"/>
<path d="M23.0534 130.549C23.0534 130.549 4.65487 118.867 1.31822 122.519C-2.30686 126.486 2.6943 148.827 2.6943 148.827L23.0534 130.549Z" fill="#929BA1"/>
<path d="M17.6609 132.792C17.6609 132.792 6.58489 125.74 4.56715 127.965C2.37406 130.385 5.34985 143.941 5.34985 143.941L17.6609 132.792Z" fill="#E9B1D1"/>
<path d="M28.5577 129.258C28.5577 129.258 44.4519 113.898 48.9067 118.165C52.6716 121.77 51.7961 142.756 51.7961 142.756L28.5577 129.258Z" fill="#929BA1"/>
<path d="M33.926 130.575C33.926 130.575 43.6628 120.138 46.1761 122.737C48.2993 124.933 47.2561 138.489 47.2561 138.489L33.926 130.575Z" fill="#E9B1D1"/>
<path d="M25.9657 127.827C40.6122 126.434 53.2205 135.438 54.1049 147.918C54.9892 160.399 43.8154 171.662 29.169 173.054C14.5225 174.447 1.91415 165.444 1.0298 152.963C0.144176 140.481 11.3193 129.219 25.9657 127.827Z" fill="#929BA1"/>
<path d="M20.1489 172.464C17.8046 170.927 16.304 168.722 16.2023 166.204C15.999 161.139 21.5288 156.719 28.5426 156.338C35.559 155.958 41.4191 159.763 41.6236 164.828C41.6973 166.65 41.0302 168.388 39.8168 169.885C36.6148 171.575 33.0139 172.688 29.169 173.051C26.0407 173.35 23.0027 173.129 20.1489 172.464Z" fill="#F0F1F2"/>
<path d="M28.1955 155.905C30.3924 155.805 32.2195 156.957 32.2703 158.475C32.3212 159.991 28.3797 161.403 28.3797 161.403C28.3797 161.403 24.3569 160.35 24.3061 158.834C24.2565 157.317 25.9973 156.004 28.1955 155.905Z" fill="#FF9EB1"/>
<path d="M11.4756 156.879C11.4756 156.879 15.1807 148.861 21.1526 156.438" stroke="#444757" stroke-miterlimit="1.5" stroke-linecap="round" stroke-linejoin="round"/>
<path d="M34.9121 155.493C34.9121 155.493 37.7913 147.031 44.4799 153.756" stroke="#444757" stroke-miterlimit="1.5" stroke-linecap="round" stroke-linejoin="round"/>
<path d="M94.5321 165.808L122.822 180.815C122.822 180.815 103.344 231.383 89.9833 231.867C76.6227 232.351 40.9412 204.395 40.9412 204.395L47.1278 188.035L83.0787 203.365L94.5321 165.808Z" fill="#F9B287"/>
<path d="M108.699 211.241L86.4357 192.358L93.4698 169.292L121.294 184.623C118.97 190.268 114.23 201.273 108.699 211.241Z" fill="#F89874"/>
<path d="M86.9948 188.009C86.9948 188.009 98.4214 145.937 110.455 129.698C117.222 120.566 133.109 126.25 131.473 154.985C130.084 179.382 123.068 205.833 123.068 205.833L86.9948 188.009Z" fill="#BC69B6"/>
<path d="M49.4123 191.136C49.345 189.57 48.6449 182.867 46.1583 181.192C42.6399 178.823 37.8586 178 32.2768 176.491C30.2717 175.951 25.5768 173.699 24.7725 174.205C22.0127 175.941 26.2731 179.941 27.8321 180.53C27.8131 180.637 24.911 180.238 24.7687 180.222C22.6188 179.974 19.014 178.943 17.1793 180.536C14.2721 183.063 19.1284 186.418 21.4244 187.158C20.2046 187.906 19.441 188.597 19.3012 190.442C19.1246 192.772 20.2846 194.441 22.4663 195.096C21.8602 196.307 21.8412 197.436 21.9949 198.425C22.2681 200.2 23.4383 200.829 25.2363 201.586C24.8792 202.286 24.7852 203.047 24.836 203.646C24.9224 204.65 25.315 205.619 26.4332 206.45C28.4878 207.981 31.8752 207.161 34.2373 206.921C37.1343 206.625 39.6845 205.854 42.4404 204.983C43.1418 204.762 44.9652 204.601 45.4251 203.946C45.9219 203.238 45.9156 201.948 46.0998 201.132C46.5153 199.272 46.9791 197.423 47.4696 195.58" fill="#F9B287"/>
<path d="M62.2994 173.001C62.2994 173.001 68.8711 190.481 63.6526 195.442C58.4342 200.403 46.0977 194.8 45.6365 197.667C45.174 200.533 45.1638 203.737 41.6988 203.087C38.2351 202.436 37.2263 193.344 39.4969 190.634C41.7662 187.925 49.6262 185.854 49.6262 185.854L46.5183 179.552" fill="#929BA1"/>
<path d="M40.3872 189.797C40.8612 190.592 41.2678 191.444 41.6769 192.283C42.4583 193.886 43.0594 195.68 44.2537 196.949C44.6438 197.364 45.1 197.726 45.579 198.029C45.166 200.795 45.0174 203.709 41.6973 203.087C38.2335 202.436 37.2247 193.344 39.4953 190.634C39.7354 190.347 40.0378 190.068 40.3872 189.797Z" fill="#F0F1F2"/>
<path d="M321.203 259.845C321.203 259.845 341.48 270.827 345.276 279.352C349.073 287.88 314.513 292.638 314.513 292.638C314.513 292.638 305.37 281.956 306.92 266.965L321.203 259.845Z" fill="#F9B287"/>
<path d="M413.932 451.646C417.528 452.197 422.418 461.075 419.751 471.661C415.723 487.643 404.519 492.87 397.158 493.522C387.461 494.382 379.696 487.596 381.869 480.693C383.085 485.16 389.554 487.081 398.944 481.876C411.83 474.729 414.3 452.52 413.932 451.646Z" fill="#732E1F"/>
<path d="M318.017 424.969C328.612 387.244 320.154 375.905 297.382 384.386C297.382 384.386 287.22 401.308 293.322 435.624C297.477 458.994 296.49 485.791 293.089 504.195C293.039 504.473 290.476 504.882 287.766 506.344C277.72 511.765 280.317 520.958 283.013 521.289C283.978 521.407 303.648 522.105 304.542 520.684C306.62 517.386 316.447 463.298 315.128 452.64C312.877 434.438 318.017 424.969 318.017 424.969Z" fill="#A0472B"/>
<path d="M329.735 437.71C355.854 431.934 375.422 441.169 376.143 465.307C377.945 525.443 362.478 507.598 345.754 509.068C326.827 510.731 315.567 495.874 312.158 481.077C306.779 457.741 316.689 440.594 329.735 437.71Z" fill="#A0472B"/>
<path d="M346.792 499.719C359.66 499.825 372.649 502.771 376.287 515.524C377.85 521.005 366.6 521.145 346.792 521.145C326.986 521.145 303.463 522.033 304.19 516.16C305.869 502.598 326.986 499.555 346.792 499.719Z" fill="#A0472B"/>
<path d="M309.618 519.712C309.618 519.712 309.757 514.145 315.398 510.452" stroke="#3F1E2B" stroke-width="1.27" stroke-miterlimit="1.5" stroke-linecap="round" stroke-linejoin="round"/>
<path d="M305.493 518.396C305.493 518.396 306.789 511.007 310.664 509.074" stroke="#3F1E2B" stroke-width="1.27" stroke-miterlimit="1.5" stroke-linecap="round" stroke-linejoin="round"/>
<path d="M357.408 306.139C357.408 306.139 365.26 285.99 355.978 260.357C348.062 238.492 334.814 285.771 334.814 285.771L357.408 306.139Z" fill="#AB442E"/>
<path d="M342.532 279.256C342.532 279.256 348.896 260.154 348.561 258.844C347.566 254.967 339.247 275.896 339.247 275.896L342.532 279.256Z" fill="#FB6687"/>
<path d="M353.708 279.929C369.219 289.941 375.45 311.294 367.614 327.584C359.78 343.875 340.825 348.972 325.315 338.961C309.803 328.951 303.573 307.598 311.408 291.307C319.244 275.017 338.199 269.92 353.708 279.929Z" fill="#CC6240"/>
<path d="M321.234 285.982C332.761 293.421 337.964 308.101 332.845 318.743C327.725 329.385 340.721 364.253 304.952 321.169C293.105 306.9 291.256 288.725 298.352 280.306C301.685 276.355 309.708 278.543 321.234 285.982Z" fill="#CC6240"/>
<path d="M366.309 314.479C366.309 314.479 380.198 295.14 377.227 274.802C374.331 254.974 353.052 290.118 353.052 290.118L366.309 314.479Z" fill="#CC6240"/>
<path d="M365.598 295.711C365.598 295.711 374.353 280.485 372.49 272.889C371.186 267.578 359.866 285.698 359.866 285.698L365.598 295.711Z" fill="#FC90B0"/>
<path d="M303.806 275.469C306.432 276.597 310.054 279.29 308.993 280.362C308.573 280.787 307.936 281.258 307.165 281.744C303.828 283.843 297.992 286.16 296.524 285.618C294.657 284.933 295.449 280.721 296.848 277.686C298.294 274.549 301.523 274.489 303.806 275.469Z" fill="#522738"/>
<path d="M328.875 287.548C329.952 288.453 329.687 291.008 328.284 293.25C326.879 295.492 324.865 296.576 323.787 295.671C322.71 294.766 322.975 292.211 324.378 289.969C325.781 287.727 327.797 286.642 328.875 287.548Z" fill="#522738"/>
<path d="M300.68 315.84C300.68 315.84 308.473 318.764 318.658 311.535C319.005 311.288 319.116 310.764 318.902 310.362C318.689 309.96 318.236 309.834 317.889 310.079C308.38 316.828 301.126 314.215 301.126 314.215C300.739 314.073 300.323 314.321 300.201 314.769C300.078 315.218 300.293 315.699 300.68 315.84Z" fill="#522738"/>
<path d="M316.324 306.098C316.324 306.098 316.066 311.47 320.959 313.082C321.349 313.212 321.757 312.948 321.869 312.493C321.981 312.042 321.753 311.569 321.361 311.44C317.647 310.218 317.795 306.183 317.795 306.183C317.816 305.712 317.502 305.312 317.095 305.288C316.691 305.263 316.344 305.627 316.324 306.098Z" fill="#522738"/>
<path d="M358.23 374.689C358.23 378.267 359.398 381.714 361.5 384.339C368.695 399.505 376.981 437.155 384.497 445.154C391.04 452.127 395.617 461.733 395.067 472.282C392.667 518.363 378.562 511.049 358.23 511.049C337.899 511.049 329.883 493.567 326.025 475.173C323.453 462.909 316.029 449.912 307.329 444.114C296.133 436.619 288.734 423.667 288.734 408.961C288.734 395.196 295.216 382.97 305.225 375.306C308.562 372.758 310.912 368.804 311.779 364.284C314.017 353.117 317.769 333.536 317.769 333.536L358.232 333.249V374.689H358.23Z" fill="#CC6240"/>
<path d="M288.734 408.962C288.734 399.817 311.343 397.53 324.727 450.935C334.293 489.106 358.098 492.745 353.472 510.706C336.613 508.178 329.568 492.06 326.027 475.173C323.455 462.909 316.031 449.912 307.331 444.114C296.133 436.62 288.734 423.667 288.734 408.962Z" fill="#EB9B62"/>
<path d="M359.843 350.563L308.024 354.787L307.848 371.439L359.866 366.028L359.843 350.563Z" fill="#522738"/>
<path d="M343.91 439.347C370.029 433.573 389.596 442.807 390.318 466.944C392.12 527.081 376.652 509.236 359.927 510.706C341.001 512.368 329.741 497.512 326.331 482.715C320.955 459.381 330.863 442.232 343.91 439.347Z" fill="#CC6240"/>
<path d="M326.853 484.699L326.33 482.716C320.952 459.382 330.862 442.233 343.909 439.348C360.53 435.672 374.499 438.076 382.625 446.561C373.549 442.74 361.77 442.296 348.52 445.224C335.547 448.091 325.281 463.265 326.853 484.699Z" fill="#DD7B4E"/>
<path d="M360.967 501.357C373.833 501.463 386.824 504.41 390.461 517.162C392.025 522.642 380.775 522.783 360.967 522.783C341.159 522.783 317.636 523.671 318.365 517.798C320.042 504.236 341.161 501.194 360.967 501.357Z" fill="#CC6240"/>
<path d="M323.79 521.35C323.79 521.35 323.931 515.783 329.571 512.09" stroke="#522738" stroke-width="1.27" stroke-miterlimit="1.5" stroke-linecap="round" stroke-linejoin="round"/>
<path d="M319.665 520.034C319.665 520.034 320.961 512.646 324.838 510.712" stroke="#522738" stroke-width="1.27" stroke-miterlimit="1.5" stroke-linecap="round" stroke-linejoin="round"/>
<path d="M327.861 424.969C338.457 387.244 329.999 375.905 307.226 384.386C307.226 384.386 297.065 401.308 303.167 435.624C307.322 458.994 306.334 485.791 302.934 504.195C302.883 504.473 300.319 504.882 297.612 506.344C287.566 511.765 290.163 520.958 292.86 521.289C293.824 521.407 313.494 522.105 314.388 520.684C316.466 517.386 326.293 463.298 324.974 452.64C322.722 434.438 327.861 424.969 327.861 424.969Z" fill="#CC6240"/>
<path d="M297.919 521.082C297.919 521.082 297.742 519.469 298.074 517.516C298.397 515.615 299.2 513.371 301.191 512.042C301.543 511.806 301.665 511.285 301.461 510.876C301.259 510.468 300.808 510.327 300.455 510.562C298.035 512.177 297.021 514.876 296.627 517.184C296.244 519.439 296.456 521.3 296.456 521.3C296.509 521.768 296.878 522.098 297.281 522.037C297.684 521.978 297.971 521.55 297.919 521.082Z" fill="#522738"/>
<path d="M293.632 521.082C293.632 521.082 293.455 519.469 293.788 517.515C294.111 515.615 294.914 513.371 296.905 512.041C297.258 511.806 297.379 511.285 297.176 510.876C296.972 510.468 296.523 510.327 296.169 510.562C293.749 512.177 292.734 514.876 292.341 517.184C291.957 519.439 292.169 521.3 292.169 521.3C292.221 521.768 292.591 522.097 292.994 522.037C293.399 521.978 293.684 521.55 293.632 521.082Z" fill="#522738"/>
<path d="M328.775 264.879C328.775 264.879 345.038 281.127 340.326 282.81C335.615 284.491 327.57 278.606 327.57 278.606C327.57 278.606 317.375 281.167 311.803 275.02" fill="#F9B287"/>
<path d="M266.526 171.908L294.138 159.114C294.138 159.114 300.787 203.016 324.941 262.458L307.843 270.209C307.843 270.209 276.763 225.645 266.526 171.908Z" fill="#F9B287"/>
<path d="M276.742 208.412C272.617 197.092 268.976 184.762 266.527 171.907L294.139 159.114C294.139 159.114 296.084 171.953 301.692 193.147L276.742 208.412Z" fill="#F89874"/>
<path d="M255.769 129.489L260.718 106.14C260.718 106.14 280.113 110.879 288.749 135.242C297.058 158.68 306.021 181.34 306.021 181.34L271.531 196.633L255.769 129.489Z" fill="#522738"/>
<path d="M268.134 521.816L215.174 520.839L220.235 499.655C220.235 499.655 243.758 497.973 251.956 501.017C270.993 508.084 268.134 521.816 268.134 521.816Z" fill="#522738"/>
<path d="M267.144 513.97C268.858 518.333 268.132 521.817 268.132 521.817L215.173 520.839L216.814 513.97H267.144Z" fill="#AB7B80"/>
<path d="M149.437 521.816L199.686 520.839L194.884 499.655C194.884 499.655 172.565 497.973 164.786 501.017C146.723 508.084 149.437 521.816 149.437 521.816Z" fill="#522738"/>
<path d="M198.006 513.422H150.588C148.69 518.037 149.437 521.816 149.437 521.816L199.686 520.839L198.006 513.422Z" fill="#AB7B80"/>
<path d="M274.949 232.17L251.751 500.753L218.174 504.722L229.013 219.843L274.949 232.17Z" fill="#273036"/>
<path d="M219.204 477.658L226.622 282.739L252.748 274.507L219.204 477.658Z" fill="#161B1F"/>
<path d="M244.863 219.844L198.062 504.449L166.429 499.193L188.392 214.785L244.863 219.844Z" fill="#273036"/>
<path d="M238.186 219.244L244.863 219.841L244.176 223.911L274.947 232.17L273.702 246.592C240.81 261.614 200.87 258.725 185.428 256.782L187.791 223.299L238.186 219.244Z" fill="#161B1F"/>
<path d="M238.186 219.244L187.792 223.298L188.393 214.781L238.186 219.244Z" fill="#273036"/>
<path d="M272.265 114.164C257.357 93.3473 199.397 94.8825 185.324 116.465C171.254 138.048 184.674 243.664 184.674 243.664C213.854 250.519 246.037 251.455 274.774 241.364C274.774 241.364 287.175 134.982 272.265 114.164Z" fill="#522738"/>
<path d="M195.368 129.709C207.193 205.766 238.115 225.757 276.963 218.863C275.835 232.263 274.774 241.364 274.774 241.364C246.037 251.455 213.854 250.519 184.674 243.664C184.674 243.664 195.101 167.503 195.368 129.709Z" fill="#462130"/>
<path d="M205.34 103.171C208.143 116.982 221.192 133.627 239.291 129.708C250.898 127.195 255.984 111.859 251.812 101.959C237.52 98.128 219.473 98.5991 205.34 103.171Z" fill="#78394B"/>
<path d="M218.141 82.6511C218.141 82.6511 219.872 97.9545 208.518 103.046C208.518 103.046 216.714 123.127 232.41 125.356C248.105 127.585 251.792 106.415 248.297 105.497C244.559 104.515 241.962 102.354 243.133 82.2905L218.141 82.6511Z" fill="#F9B287"/>
<path d="M217.136 92.6705C222.593 97.8957 231.854 104.01 244.863 103.234C243.074 99.9123 241.877 93.7347 243.132 82.2921L218.14 82.6512C218.14 82.6512 218.692 87.5159 217.136 92.6705Z" fill="#F89874"/>
<path d="M267.303 60.5592C272.354 59.9792 276.755 63.3131 277.126 67.9952C277.496 72.6803 273.694 76.9532 268.644 77.5332C263.593 78.1116 259.19 74.7778 258.82 70.0956C258.451 65.4106 262.251 61.1376 267.303 60.5592Z" fill="#F89874"/>
<path d="M267.307 29.3238C273.083 31.2078 275.534 42.6901 272.78 54.9467C270.024 67.2047 263.096 75.6285 257.32 73.743C251.544 71.8589 249.091 60.3766 251.847 48.1185C254.605 35.8605 261.531 27.4382 267.307 29.3238Z" fill="#8A4F35"/>
<path d="M243.137 14.4252C259.61 16.8053 271.153 37.1132 268.899 59.7467C266.646 82.3788 254.474 100.686 238.002 98.3062C221.529 95.9262 206.955 73.7534 209.209 51.1199C211.462 28.4864 226.665 12.0437 243.137 14.4252Z" fill="#F9B287"/>
<path d="M265.469 34.5035C267.864 40.3676 269.199 47.1221 269.181 54.2535C268.551 49.1548 267.574 45.2205 267.574 45.2205C251.032 54.9394 230.746 39.9451 230.746 39.9451C220.147 60.4002 210.988 59.4508 210.988 59.4508L222.67 26.7848L265.469 34.5035Z" fill="#F89874"/>
<path d="M220.012 13.2539C222.595 2.02477 237.362 -3.05919 253.091 1.90261C268.902 6.89237 279.735 20.1587 277.266 31.51C274.797 42.8613 259.958 48.0263 244.147 43.0365C238.483 41.2496 233.458 38.4 229.454 34.9572C229.207 36.1156 228.882 37.3137 228.473 38.5472C222.903 55.3593 215.082 59.5204 212.816 58.4488C206.458 55.4388 202.207 45.5888 204.13 33.1026C206.054 20.6179 213.071 11.6996 219.787 13.201C219.862 13.2157 219.937 13.2333 220.012 13.2539Z" fill="#8A4F35"/>
<path d="M222.567 7.75158C228.004 0.505388 240.225 -2.15729 253.09 1.90223C268.9 6.89199 279.733 20.1583 277.265 31.5096C277.124 32.1573 276.943 32.7843 276.725 33.3893C258.808 -2.66657 233.591 2.99144 222.567 7.75158Z" fill="#AC6542"/>
<path d="M210.743 50.4456C214.927 53.9032 216.531 59.86 214.321 63.7414C212.11 67.6199 206.92 67.9628 202.737 64.5038C198.551 61.0463 196.949 55.0895 199.159 51.2081C201.367 47.3296 206.559 46.9867 210.743 50.4456Z" fill="#F9B287"/>
<path d="M234.219 63.9269C235.165 64.1948 235.644 65.8889 235.291 67.7097C234.937 69.5304 233.882 70.7918 232.935 70.5239C231.989 70.2575 231.51 68.5634 231.863 66.7426C232.216 64.9219 233.272 63.6605 234.219 63.9269Z" fill="#162448"/>
<path d="M259.847 67.8966C260.794 68.163 261.273 69.8587 260.92 71.6794C260.565 73.5002 259.51 74.7601 258.564 74.4937C257.617 74.2258 257.138 72.5316 257.491 70.7109C257.846 68.8902 258.902 67.6287 259.847 67.8966Z" fill="#162448"/>
<path d="M227.777 58.0113C227.777 58.0113 237.447 51.6041 241.529 58.9813C241.529 58.9813 239.811 42.9301 227.777 58.0113Z" fill="#8A4F35"/>
<path d="M267.188 63.2572C267.188 63.2572 264.24 55.1087 255.489 59.9513C255.489 59.9513 266.24 46.1831 267.188 63.2572Z" fill="#8A4F35"/>
<path d="M250.211 71.1936C250.211 71.1936 250.24 76.5925 248.437 79.4466" stroke="#C04A4A" stroke-width="0.92" stroke-miterlimit="1.5" stroke-linecap="round" stroke-linejoin="round"/>
<path d="M245.601 85.3902C245.601 85.3902 237.256 87.7821 234.652 77.149" stroke="#C04A4A" stroke-width="0.92" stroke-miterlimit="1.5" stroke-linecap="round" stroke-linejoin="round"/>
<path d="M200.982 180.193L170.89 172.977C170.89 172.977 168.364 233.027 190.798 288.444L208.95 279.386C208.95 279.386 196.498 242.849 200.982 180.193Z" fill="#F9B287"/>
<path d="M171.341 196.058L200.231 194.297C200.389 189.759 200.634 185.053 200.983 180.193L170.891 172.977C170.891 172.977 170.515 181.906 171.341 196.058Z" fill="#F89874"/>
<path d="M205.01 275.022C205.01 275.022 222.369 286.918 225.608 295.837C227.469 300.967 228.426 321.659 225.332 322.527C222.241 323.394 220.365 304.505 220.365 304.505C220.365 304.505 219.763 329.654 216.905 329.984C212.433 330.501 212.944 307.691 212.944 307.691C212.944 307.691 210.498 332.734 206.772 332.467C203.225 332.216 204.568 310.44 204.568 310.44C204.568 310.44 199.979 328.686 196.877 327.879C193.461 326.992 197.276 309.363 197.276 309.363C197.276 309.363 187.075 299.22 189.858 281.865L205.01 275.022Z" fill="#F9B287"/>
<path d="M214.131 143.937L201.572 105.086C201.572 105.086 180.932 107.548 174.023 131.399C166.384 157.773 162.822 185.185 162.822 185.185L204.783 192.817L214.131 143.937Z" fill="#522738"/>
</svg>
